<?xml version="1.0" encoding="utf-8"?>
<!-- Generator: Adobe Illustrator 16.0.0, SVG Export Plug-In . SVG Version: 6.00 Build 0)  -->
<!DOCTYPE svg PUBLIC "-//W3C//DTD SVG 1.1//EN" "http://www.w3.org/Graphics/SVG/1.1/DTD/svg11.dtd">
<svg version="1.1" id="Layer_1" xmlns="http://www.w3.org/2000/svg" xmlns:xlink="http://www.w3.org/1999/xlink" x="0px" y="0px"
	 width="30px" height="30px" viewBox="0 0 30 30" enable-background="new 0 0 30 30" xml:space="preserve">
<g>
	<path fill="#FFFFFF" d="M21.157,25.464c0.267-0.193,0.437-0.505,0.437-0.856c0-0.469-0.299-0.856-0.716-1.006
		c0.417-0.146,0.716-0.537,0.716-1.002c0-0.464-0.304-0.86-0.724-1.002c0.42-0.146,0.724-0.537,0.724-1.006
		c0-0.044-0.005-0.089-0.009-0.129c1.705-1.681,2.768-4.016,2.768-6.601H5.374c0,2.585,1.058,4.92,2.768,6.597
		c-0.004,0.04-0.008,0.085-0.008,0.125c0,0.469,0.303,0.86,0.723,1.002c-0.42,0.146-0.723,0.537-0.723,1.006
		c0,0.465,0.299,0.856,0.71,1.002c-0.412,0.149-0.71,0.537-0.71,1.002c0,0.355,0.17,0.666,0.437,0.86
		c-1.35,0.335-2.348,1.556-2.348,3.006h6.205c0-1.346-0.861-2.489-2.056-2.917c0.343-0.178,0.578-0.533,0.578-0.949
		c0-0.465-0.299-0.856-0.711-1.002c0.412-0.146,0.711-0.537,0.711-1.002c0-0.089-0.013-0.17-0.034-0.25
		c1.136,0.496,2.392,0.775,3.717,0.775c0.076,0,0.15,0,0.226-0.004c0.077,0,0.153,0.004,0.234,0.004c1.321,0,2.582-0.279,3.717-0.78
		c-0.02,0.085-0.032,0.174-0.032,0.263c0,0.465,0.295,0.856,0.711,1.002c-0.416,0.146-0.711,0.537-0.711,1.002
		c0,0.412,0.234,0.771,0.578,0.949c-1.196,0.429-2.057,1.571-2.057,2.917h6.205C23.508,27.02,22.507,25.804,21.157,25.464
		L21.157,25.464z M21.157,25.464"/>
	<path fill="#FFFFFF" d="M9.987,6.509c0.04,0.283,0.246,1.454,0.803,2.501c-0.977,1.013-1.579,2.395-1.579,3.918h11.303
		c0-1.52-0.602-2.901-1.579-3.918c0.558-1.043,0.763-2.214,0.808-2.493c1.022-0.226,1.79-1.14,1.79-2.23
		c0-1.26-1.022-2.283-2.287-2.283c-1.26,0-2.282,1.023-2.282,2.283c0,1.079,0.747,1.98,1.749,2.218
		c-0.061,0.343-0.227,1.107-0.565,1.822c-0.921-0.663-2.052-1.051-3.269-1.059h-0.028c-1.221,0.008-2.347,0.396-3.268,1.055
		c-0.339-0.715-0.505-1.479-0.57-1.826c1.002-0.238,1.75-1.139,1.75-2.218c0-1.26-1.022-2.282-2.282-2.282
		c-1.265,0-2.284,1.022-2.284,2.282C8.197,5.374,8.961,6.283,9.987,6.509L9.987,6.509z M17.671,4.291
		c0-0.872,0.707-1.575,1.575-1.575c0.873,0,1.576,0.703,1.576,1.575c0,0.869-0.703,1.572-1.576,1.572
		C18.378,5.863,17.671,5.16,17.671,4.291L17.671,4.291z M12.249,11.199h5.228v0.78h-5.228V11.199z M10.48,2.704
		c0.868,0,1.575,0.708,1.575,1.576c0,0.873-0.708,1.575-1.575,1.575c-0.873,0-1.576-0.703-1.576-1.575
		C8.904,3.411,9.607,2.704,10.48,2.704L10.48,2.704z M10.48,2.704"/>
	<path fill="#FFFFFF" d="M11.191,4.279c0,0.396-0.32,0.715-0.71,0.715c-0.396,0-0.715-0.319-0.715-0.715
		c0-0.392,0.319-0.711,0.715-0.711C10.871,3.568,11.191,3.888,11.191,4.279L11.191,4.279z M11.191,4.279"/>
	<path fill="#FFFFFF" d="M19.961,4.291c0,0.392-0.318,0.711-0.715,0.711c-0.392,0-0.711-0.319-0.711-0.711
		c0-0.396,0.319-0.714,0.711-0.714C19.643,3.577,19.961,3.896,19.961,4.291L19.961,4.291z M19.961,4.291"/>
</g>
</svg>
