<?xml version="1.0" encoding="utf-8"?>
<!-- Generator: Adobe Illustrator 16.0.0, SVG Export Plug-In . SVG Version: 6.00 Build 0)  -->
<!DOCTYPE svg PUBLIC "-//W3C//DTD SVG 1.1//EN" "http://www.w3.org/Graphics/SVG/1.1/DTD/svg11.dtd">
<svg version="1.1" id="Layer_1" xmlns="http://www.w3.org/2000/svg" xmlns:xlink="http://www.w3.org/1999/xlink" x="0px" y="0px"
	 width="30px" height="30px" viewBox="0 0 30 30" enable-background="new 0 0 30 30" xml:space="preserve">
<g>
	<path fill="#FFFFFF" d="M26.876,9.163h-0.754v8.303c0,1.293-0.753,2.462-2.263,2.462H9.076v0.395c0,1.145,1.3,2.297,2.635,2.297
		h11.303l4.324,2.543l-0.627-2.543h0.165c1.335,0,1.937-1.151,1.937-2.297v-9.188C28.812,9.991,28.211,9.163,26.876,9.163z"/>
	<path fill="#FFFFFF" d="M21.652,3.395H4.481c-1.511,0-3.249,1.342-3.249,2.635v10.407c0,1.191,1.473,2.052,2.886,2.184
		l-0.919,3.491l5.893-3.467h12.561c1.511,0,2.905-0.915,2.905-2.208V8.017V6.03C24.558,4.736,23.163,3.395,21.652,3.395z
		 M7.101,12.179c-0.856,0-1.551-0.695-1.551-1.551c0-0.857,0.695-1.551,1.551-1.551c0.856,0,1.552,0.693,1.552,1.551
		C8.653,11.484,7.957,12.179,7.101,12.179z M12.896,12.179c-0.857,0-1.551-0.695-1.551-1.551c0-0.857,0.694-1.551,1.551-1.551
		c0.856,0,1.551,0.693,1.551,1.551C14.446,11.484,13.752,12.179,12.896,12.179z M18.688,12.179c-0.855,0-1.552-0.695-1.552-1.551
		c0-0.857,0.696-1.551,1.552-1.551c0.856,0,1.553,0.693,1.553,1.551C20.241,11.484,19.545,12.179,18.688,12.179z"/>
</g>
</svg>
