<?xml version="1.0" encoding="utf-8"?>
<!-- Generator: Adobe Illustrator 16.0.0, SVG Export Plug-In . SVG Version: 6.00 Build 0)  -->
<!DOCTYPE svg PUBLIC "-//W3C//DTD SVG 1.1//EN" "http://www.w3.org/Graphics/SVG/1.1/DTD/svg11.dtd">
<svg version="1.1" id="Layer_1" xmlns="http://www.w3.org/2000/svg" xmlns:xlink="http://www.w3.org/1999/xlink" x="0px" y="0px"
	 width="36px" height="36px" viewBox="0 0 36 36" enable-background="new 0 0 36 36" xml:space="preserve">
<path fill="#666666" d="M35.052,18.333c-0.824-0.591-2.075-0.971-3.477-0.971c-2.168,0-3.978,0.904-4.397,2.11h-0.181
	c-0.411-1.213-2.227-2.124-4.404-2.124c-1.402,0-2.653,0.379-3.476,0.972v10.192c0,2.537-2.064,4.603-4.601,4.603
	c-2.537,0-4.6-2.065-4.6-4.603c0-0.561,0.454-1.015,1.014-1.015c0.561,0,1.014,0.454,1.014,1.015c0,1.417,1.154,2.571,2.572,2.571
	c1.417,0,2.57-1.154,2.57-2.571V18.337c-0.823-0.594-2.074-0.975-3.477-0.975c-2.169,0-3.979,0.904-4.4,2.11H9.03
	c-0.411-1.213-2.227-2.124-4.404-2.124c-1.398,0-2.649,0.374-3.473,0.968C1.815,11.087,8.615,5.343,17.086,4.917V4.156
	c0-0.561,0.454-1.014,1.016-1.014c0.561,0,1.015,0.454,1.015,1.014v0.761C27.592,5.346,34.396,11.097,35.052,18.333L35.052,18.333z"
	/>
</svg>
