<?xml version="1.0" encoding="utf-8"?>
<!-- Generator: Adobe Illustrator 19.2.1, SVG Export Plug-In . SVG Version: 6.00 Build 0)  -->
<svg version="1.1" id="Layer_1" xmlns="http://www.w3.org/2000/svg" xmlns:xlink="http://www.w3.org/1999/xlink" x="0px" y="0px"
	 viewBox="0 0 33 33" style="enable-background:new 0 0 33 33;" xml:space="preserve">
<style type="text/css">
	.st0{fill-rule:evenodd;clip-rule:evenodd;fill:#C5A22E;}
	.st1{fill-rule:evenodd;clip-rule:evenodd;fill:#FFFFFF;}
</style>
<path class="st0" d="M16.5,0C25.6,0,33,7.4,33,16.5S25.6,33,16.5,33C7.4,33,0,25.6,0,16.5S7.4,0,16.5,0z"/>
<path class="st1" d="M17.8,16.3l-4.1,3.9l0.2,3.6L12.3,25l-0.9-3.5c0,0,0.2-0.2-0.7,0.6c-0.8,0.7-1,0.1-0.5-0.5
	c0.5-0.6,0.7-0.6,0.7-0.6l-3.4-1.5l2-1.2l2.7,0.8l4.4-4.1l-8.4-3.8l1-1.2l11.3,1.4c0,0,3.4-2.9,4.2-3.3c0.8-0.3,1.4-0.2,0.8,0.8
	c-0.6,1-3.6,4-3.6,4L22,23.2L20.5,25L17.8,16.3z"/>
</svg>
