<?xml version="1.0" encoding="utf-8"?>
<!-- Generator: Adobe Illustrator 19.2.1, SVG Export Plug-In . SVG Version: 6.00 Build 0)  -->
<svg version="1.1" id="Layer_1" xmlns="http://www.w3.org/2000/svg" xmlns:xlink="http://www.w3.org/1999/xlink" x="0px" y="0px"
	 viewBox="0 0 110 110" style="enable-background:new 0 0 110 110;" xml:space="preserve">
<style type="text/css">
	.st0{fill:#F4F4F4;}
</style>
<g>
	<g>
		<path class="st0" d="M85.6,43.6l21.3-21.8c0.5-0.5,0.7-1.2,0.6-1.9l-2.1-14.5c-0.1-1-0.9-1.7-1.9-1.9L89.2,1.6
			c-0.7-0.1-1.3,0.2-1.8,0.6L66.2,23.8L24.6,1.6c-0.8-0.5-1.9-0.3-2.6,0.4L14,10.4c-0.4,0.4-0.7,1.1-0.6,1.7c0,0.6,0.3,1.2,0.8,1.6
			l12.7,10c-1.7,2.4-2.2,5.6-1.2,8.4c0,0,0,0.1,0.1,0.2c1.5,3.2,4.4,5.4,7.8,5.7c0.3,0,0.5,0,0.8,0c2.6,0,4.9-1.1,6.6-3.2l8.1,6.4
			l-20,24.1L14,61.7c-0.7-0.2-1.5,0-2.1,0.6l-6.2,6.3c-0.5,0.5-0.7,1.2-0.6,1.8c0.1,0.7,0.5,1.3,1,1.6l20.1,12.1l12,20.4
			c0.3,0.6,0.9,1,1.6,1.1c0.1,0,0.2,0,0.2,0c0.6,0,1.2-0.2,1.6-0.7l6-6.3c0.5-0.6,0.7-1.3,0.5-2.1l-3.6-15.3l23.8-20.4l3.8,4.9
			c-2.4,1.7-3.8,4.6-3.5,7.8c0.3,3.9,2.9,7.1,6.4,8c0.9,0.3,1.9,0.4,2.8,0.4c2,0,3.9-0.7,5.4-1.9l12.4,16.2c0.4,0.5,1,0.8,1.6,0.8
			c0.6,0,1.2-0.2,1.7-0.6l8.1-8.2c0.7-0.6,0.8-1.7,0.4-2.6L85.6,43.6z M34,33.7c-1.8-0.2-3.4-1.3-4.2-3.1c-0.5-1.4-0.3-2.9,0.5-4.1
			l7.2,5.7C36.8,33.2,35.6,33.9,34,33.7z M76.2,77.4c0,0-0.1,0-0.2,0c-1.7-0.4-3-2.1-3.2-4.1c-0.1-1.6,0.7-3.1,1.9-3.9l5.7,7.4
			C79.3,77.6,77.7,78,76.2,77.4z M97.5,91.7L70.4,56.4c-0.4-0.5-0.9-0.8-1.5-0.8c-0.6-0.1-1.2,0.1-1.6,0.5L40.7,78.8
			c-0.6,0.5-0.9,1.4-0.7,2.2l3.7,15.5l-3.2,3.4L29.7,81.5c-0.2-0.3-0.4-0.6-0.8-0.8l-18.1-11l3.4-3.4l15.2,3.9
			c0.8,0.2,1.7-0.1,2.2-0.7l22.4-27c0.4-0.5,0.6-1.1,0.5-1.7c-0.1-0.6-0.4-1.2-0.8-1.5L18.8,11.8l5.3-5.5l41.5,22.2
			c0.8,0.4,1.9,0.3,2.5-0.4l21.6-22l11.6,1.5l1.7,11.8L81.4,41.6c-0.7,0.7-0.8,1.7-0.4,2.6l21.7,42.2L97.5,91.7z M20,96l-8.5,8.7
			c-0.8,0.9-0.8,2.3,0,3.1c0.4,0.4,1,0.6,1.5,0.6c0.5,0,1.1-0.2,1.5-0.6l8.5-8.7c0.8-0.9,0.8-2.3,0-3.1C22.2,95.2,20.9,95.2,20,96z
			 M14.5,87.1c-0.8-0.9-2.2-0.9-3.1,0l-8.5,8.7c-0.8,0.9-0.8,2.3,0,3.1c0.4,0.4,1,0.6,1.5,0.6c0.6,0,1.1-0.2,1.5-0.6l8.5-8.7
			C15.4,89.4,15.4,88,14.5,87.1z"/>
	</g>
</g>
</svg>
