<?xml version="1.0" encoding="utf-8"?>
<!-- Generator: Adobe Illustrator 16.0.0, SVG Export Plug-In . SVG Version: 6.00 Build 0)  -->
<!DOCTYPE svg PUBLIC "-//W3C//DTD SVG 1.1//EN" "http://www.w3.org/Graphics/SVG/1.1/DTD/svg11.dtd">
<svg version="1.1" id="Layer_1" xmlns="http://www.w3.org/2000/svg" xmlns:xlink="http://www.w3.org/1999/xlink" x="0px" y="0px"
	 width="16px" height="16px" viewBox="0 0 16 16" enable-background="new 0 0 16 16" xml:space="preserve">
<g>
	<path fill="#0C5488" d="M11.25,9.59L9.148,8.951C9.098,8.798,8.986,8.666,8.826,8.553C9,8.361,9.146,8.166,9.256,8.003
		c0.268-0.382,0.486-0.794,0.639-1.192c0.078-0.167,0.144-0.336,0.188-0.5c0.209-0.171,0.326-0.429,0.326-0.697V4.955
		c0-0.19-0.06-0.375-0.171-0.529V3.5c0-1.627-1.321-2.951-2.945-2.951H6.335c-1.627,0-2.95,1.323-2.95,2.951v0.926
		C3.276,4.58,3.216,4.765,3.216,4.955v0.658c0,0.268,0.12,0.522,0.325,0.695c0.052,0.167,0.117,0.335,0.192,0.503
		c0.15,0.398,0.372,0.81,0.635,1.192C4.479,8.166,4.627,8.361,4.8,8.553C4.641,8.666,4.528,8.798,4.477,8.951L2.375,9.59
		c-1.48,0.426-2.369,5.215-2.369,5.215C0.002,14.833,0,14.862,0,14.891c0,0.312,0.249,0.562,0.557,0.562H13.07
		c0.309,0,0.557-0.251,0.557-0.562C13.625,14.623,12.73,10.016,11.25,9.59L11.25,9.59z M6.303,10.094
		c0.036,0.041,0.053,0.094,0.047,0.146l-0.102,1.006c-0.011,0.076-0.064,0.143-0.139,0.161c-0.018,0.005-0.034,0.008-0.052,0.008
		c-0.058,0-0.114-0.026-0.15-0.075l-0.531-0.705c-0.024-0.031-0.038-0.072-0.038-0.113L5.34,9.393c0-0.064,0.034-0.129,0.09-0.162
		c0.057-0.033,0.128-0.037,0.187-0.006c0.154,0.08,0.31,0.139,0.459,0.164c0.091,0.018,0.156,0.094,0.156,0.188v0.471
		C6.26,10.057,6.283,10.072,6.303,10.094L6.303,10.094z M7.276,10.24c-0.007-0.053,0.011-0.105,0.047-0.146
		c0.021-0.021,0.045-0.037,0.07-0.05V9.573c0-0.091,0.066-0.171,0.156-0.188c0.148-0.023,0.305-0.078,0.459-0.162
		c0.059-0.029,0.13-0.027,0.188,0.006c0.057,0.031,0.09,0.097,0.09,0.162v1.131c0,0.041-0.013,0.082-0.037,0.11L7.717,11.34
		c-0.036,0.049-0.094,0.075-0.15,0.075c-0.018,0-0.033-0.003-0.05-0.008c-0.074-0.021-0.129-0.085-0.14-0.163L7.276,10.24z
		 M4.507,5.851l-0.011-0.08L4.313,5.653C4.259,5.617,4.227,5.558,4.227,5.494V5.182c0-0.104,0.084-0.188,0.188-0.188h0.078V4.656
		c0-0.072,0.039-0.137,0.104-0.169c0.262-0.13,0.777-0.351,1.312-0.351c0.427,0,0.78,0.144,1.053,0.422
		c0.337,0.35,0.726,0.526,1.156,0.526c0.244,0,0.495-0.058,0.748-0.171c0.059-0.026,0.127-0.021,0.18,0.014
		c0.026,0.019,0.045,0.04,0.062,0.063h0.104C9.316,4.992,9.4,5.077,9.4,5.18v0.312c0,0.063-0.033,0.123-0.084,0.159L9.129,5.769
		l-0.01,0.078c-0.061,0.452-0.312,1.038-0.68,1.568c-0.46,0.669-0.896,0.97-1.119,0.97H6.305c-0.225,0-0.658-0.301-1.12-0.97
		C4.82,6.887,4.567,6.301,4.507,5.851L4.507,5.851z"/>
</g>
<text transform="matrix(1 0 0 1 10.5908 8.4785)" fill="#0C5488" font-family="'MyriadPro-Bold'" font-size="10">2</text>
</svg>
