<?xml version="1.0" encoding="utf-8"?>
<!-- Generator: Adobe Illustrator 16.0.0, SVG Export Plug-In . SVG Version: 6.00 Build 0)  -->
<!DOCTYPE svg PUBLIC "-//W3C//DTD SVG 1.1//EN" "http://www.w3.org/Graphics/SVG/1.1/DTD/svg11.dtd">
<svg version="1.1" id="Layer_1" xmlns="http://www.w3.org/2000/svg" xmlns:xlink="http://www.w3.org/1999/xlink" x="0px" y="0px"
	 width="16px" height="16px" viewBox="0 0 16 16" enable-background="new 0 0 16 16" xml:space="preserve">
<g>
	<path fill="#0C5488" d="M12.438,9.59l-2.102-0.639c-0.051-0.153-0.163-0.285-0.322-0.398c0.174-0.192,0.319-0.387,0.43-0.55
		c0.267-0.382,0.486-0.794,0.638-1.192c0.077-0.167,0.142-0.336,0.188-0.5c0.209-0.171,0.326-0.429,0.326-0.697V4.955
		c0-0.19-0.059-0.375-0.17-0.529V3.5c0-1.627-1.322-2.951-2.947-2.951H7.522c-1.627,0-2.95,1.323-2.95,2.951v0.926
		C4.463,4.58,4.403,4.765,4.403,4.955v0.658c0,0.268,0.12,0.524,0.325,0.695C4.78,6.475,4.845,6.643,4.92,6.811
		c0.15,0.398,0.372,0.81,0.635,1.192c0.111,0.163,0.259,0.358,0.432,0.55C5.828,8.666,5.715,8.798,5.664,8.951L3.562,9.59
		c-1.48,0.426-2.369,5.215-2.369,5.215c-0.004,0.028-0.006,0.057-0.006,0.086c0,0.31,0.249,0.561,0.557,0.561h12.513
		c0.31,0,0.558-0.251,0.558-0.561C14.812,14.623,13.917,10.016,12.438,9.59L12.438,9.59z M7.49,10.094
		c0.036,0.041,0.053,0.094,0.047,0.146l-0.102,1.006c-0.011,0.076-0.064,0.143-0.139,0.161c-0.018,0.005-0.034,0.008-0.052,0.008
		c-0.058,0-0.114-0.026-0.15-0.075l-0.531-0.705c-0.024-0.031-0.038-0.072-0.038-0.113l0.002-1.129c0-0.066,0.034-0.129,0.09-0.162
		c0.057-0.035,0.128-0.037,0.187-0.006c0.154,0.08,0.31,0.137,0.459,0.164c0.091,0.016,0.156,0.094,0.156,0.186v0.471
		C7.447,10.057,7.47,10.072,7.49,10.094L7.49,10.094z M8.463,10.24c-0.007-0.053,0.011-0.105,0.047-0.146
		c0.021-0.021,0.045-0.037,0.07-0.05V9.573c0-0.091,0.066-0.171,0.156-0.187c0.149-0.025,0.305-0.08,0.459-0.164
		c0.059-0.029,0.13-0.027,0.188,0.006c0.057,0.033,0.09,0.097,0.09,0.162v1.131c0,0.041-0.013,0.082-0.037,0.112L8.904,11.34
		c-0.036,0.049-0.094,0.075-0.15,0.075c-0.018,0-0.033-0.003-0.05-0.008c-0.074-0.021-0.129-0.085-0.14-0.163L8.463,10.24z
		 M5.694,5.851l-0.011-0.08L5.5,5.653C5.446,5.617,5.414,5.558,5.414,5.494V5.182c0-0.104,0.084-0.188,0.188-0.188H5.68V4.656
		c0-0.072,0.039-0.137,0.104-0.169c0.262-0.13,0.777-0.349,1.312-0.349c0.427,0,0.78,0.142,1.053,0.422
		c0.337,0.35,0.726,0.526,1.156,0.526c0.244,0,0.496-0.058,0.747-0.171c0.06-0.026,0.128-0.021,0.181,0.014
		c0.026,0.017,0.045,0.04,0.062,0.063h0.104c0.104,0,0.188,0.085,0.188,0.188v0.312c0,0.063-0.033,0.123-0.084,0.159l-0.186,0.118
		l-0.01,0.078c-0.062,0.452-0.314,1.038-0.681,1.568c-0.46,0.669-0.896,0.97-1.119,0.97H7.492c-0.225,0-0.658-0.301-1.12-0.97
		C6.007,6.887,5.754,6.301,5.694,5.851L5.694,5.851z"/>
</g>
<circle fill="#FFFFFF" cx="11.534" cy="12.98" r="1.917"/>
<text transform="matrix(1 0 0 1 10.4248 14.1553)" fill="#0C5488" font-family="'MyriadPro-Bold'" font-size="4">2</text>
</svg>
