<?xml version="1.0" encoding="utf-8"?>
<!-- Generator: Adobe Illustrator 16.0.0, SVG Export Plug-In . SVG Version: 6.00 Build 0)  -->
<!DOCTYPE svg PUBLIC "-//W3C//DTD SVG 1.1//EN" "http://www.w3.org/Graphics/SVG/1.1/DTD/svg11.dtd">
<svg version="1.1" id="Layer_1" xmlns="http://www.w3.org/2000/svg" xmlns:xlink="http://www.w3.org/1999/xlink" x="0px" y="0px"
	 width="36px" height="36px" viewBox="0 0 36 36" enable-background="new 0 0 36 36" xml:space="preserve">
<g>
	<path fill="#666666" d="M29.224,18.613H1.869c-0.379,0-0.687-0.306-0.687-0.686s0.308-0.688,0.687-0.688h27.22
		c0.044-0.007,0.087-0.011,0.135-0.011c2.238,0,4.065-1.824,4.065-4.065c0-2.244-1.827-4.065-4.065-4.065
		c-2.244,0-4.068,1.821-4.068,4.065c0,0.379-0.306,0.686-0.688,0.686c-0.377,0-0.686-0.307-0.686-0.686c0-3,2.438-5.442,5.441-5.442
		c2.998,0,5.439,2.441,5.439,5.442c0,2.953-2.365,5.36-5.299,5.437C29.319,18.608,29.271,18.613,29.224,18.613L29.224,18.613z
		 M29.224,18.613"/>
	<path fill="#666666" d="M15.134,13.855H1.869c-0.379,0-0.687-0.307-0.687-0.688c0-0.377,0.308-0.686,0.687-0.686H15
		c0.043-0.009,0.088-0.014,0.134-0.014c2.242,0,4.065-1.824,4.065-4.065s-1.824-4.065-4.065-4.065s-4.065,1.824-4.065,4.065
		c0,0.379-0.308,0.686-0.687,0.686c-0.38,0-0.688-0.307-0.688-0.686c0-3,2.44-5.439,5.441-5.439c3,0,5.438,2.439,5.438,5.439
		c0,2.952-2.364,5.364-5.296,5.437C15.229,13.849,15.181,13.855,15.134,13.855L15.134,13.855z M15.134,13.855"/>
	<path fill="#666666" d="M23.553,33.037c-3,0-5.44-2.438-5.44-5.44c0-0.378,0.309-0.686,0.688-0.686c0.38,0,0.688,0.308,0.688,0.686
		c0,2.242,1.823,4.065,4.065,4.065c2.241,0,4.064-1.823,4.064-4.065c0-2.241-1.823-4.063-4.064-4.063H1.869
		c-0.379,0-0.687-0.311-0.687-0.686c0-0.383,0.308-0.689,0.687-0.689h21.684c2.999,0,5.439,2.439,5.439,5.438
		C28.992,30.599,26.552,33.037,23.553,33.037L23.553,33.037z M23.553,33.037"/>
</g>
</svg>
